<?xml version="1.0" standalone="no"?>
<!DOCTYPE svg PUBLIC "-//W3C//DTD SVG 20010904//EN"
 "http://www.w3.org/TR/2001/REC-SVG-20010904/DTD/svg10.dtd">
<svg version="1.0" xmlns="http://www.w3.org/2000/svg"
 width="300.000000pt" height="147.000000pt" viewBox="0 0 300.000000 147.000000"
 preserveAspectRatio="xMidYMid meet">
<metadata>
Created by potrace 1.10, written by Peter Selinger 2001-2011
</metadata>
<g transform="translate(0.000000,147.000000) scale(0.100000,-0.100000)"
fill="#000000" stroke="none">
<path d="M233 1319 c-4 -14 -14 -19 -39 -19 -18 0 -36 -4 -39 -10 -3 -5 -13
-10 -21 -10 -9 0 -36 -17 -61 -37 l-46 -38 6 -132 c3 -73 9 -137 13 -144 5 -8
32 -10 95 -5 74 6 89 4 89 -8 0 -8 3 -22 6 -31 6 -14 -4 -16 -92 -13 l-99 3 0
-100 0 -100 57 -3 c61 -3 98 9 98 33 0 10 9 12 35 8 23 -4 43 0 59 10 14 9 26
12 28 7 2 -6 19 1 38 14 l35 23 3 130 c3 126 2 129 -22 152 -13 13 -29 20 -35
17 -5 -4 -12 -2 -16 4 -3 5 -33 10 -66 10 -51 0 -59 2 -59 19 0 11 -5 21 -10
23 -6 2 29 3 77 3 l88 0 3 98 c3 108 7 103 -72 110 -41 4 -49 2 -53 -14z m97
-71 c0 -35 3 -73 6 -85 6 -21 5 -21 -90 -16 l-96 6 0 -51 0 -52 73 6 c68 6 73
5 96 -20 l25 -26 -22 -20 c-32 -30 -27 -38 6 -9 15 13 29 25 31 26 2 2 -4 13
-15 24 -19 22 -19 22 3 8 23 -14 39 -39 25 -39 -4 0 -6 -41 -4 -92 l4 -92 -34
-28 c-18 -15 -28 -28 -21 -28 6 0 15 4 18 10 9 14 45 32 45 23 0 -14 -57 -43
-73 -37 -8 3 -18 1 -22 -5 -7 -12 -75 -13 -114 -2 -23 6 -23 7 18 44 22 20 41
38 41 39 0 2 -34 4 -75 6 l-75 3 0 -51 c0 -28 -4 -49 -8 -46 -7 4 -5 106 2
112 0 1 46 -2 100 -7 55 -4 101 -7 102 -6 1 1 4 28 7 59 l6 58 -87 -6 c-48 -2
-99 -7 -114 -9 l-28 -4 0 72 c0 39 -3 95 -6 123 -6 50 -6 51 37 86 42 34 47
35 102 31 l58 -6 -41 -34 c-22 -19 -40 -40 -40 -46 0 -15 99 83 106 105 3 10
9 16 14 13 5 -3 12 0 15 6 5 7 -1 9 -16 7 -15 -2 -26 -12 -30 -28 -6 -23 -7
-22 -8 8 -1 31 0 32 39 32 l40 0 0 -62z m-90 24 c0 -4 -16 -7 -34 -8 -19 0
-33 3 -30 8 7 10 64 11 64 0z m-61 -195 c1 -10 -3 -15 -9 -12 -5 3 -10 21 -9
38 0 27 2 29 9 12 5 -11 9 -28 9 -38z m90 -164 c-1 -38 -1 -38 -9 -9 -8 27 -6
46 6 46 2 0 4 -17 3 -37z m-145 -125 l-29 -33 35 33 c20 17 44 32 54 32 14 0
5 -14 -33 -50 -28 -27 -51 -53 -51 -56 0 -4 11 3 24 15 l24 22 4 -31 c5 -31 4
-31 -36 -29 -55 3 -60 7 -42 35 9 13 16 36 16 52 0 35 6 42 39 42 l25 0 -30
-32z m56 -70 c0 -18 -2 -20 -9 -8 -6 8 -7 18 -5 22 9 14 14 9 14 -14z"/>
<path d="M167 1220 c-15 -12 -36 -35 -48 -53 -17 -25 -11 -21 29 18 29 27 52
51 52 52 0 7 -9 2 -33 -17z"/>
<path d="M280 1205 c-18 -19 -31 -37 -29 -40 3 -2 21 11 39 30 18 19 31 37 29
40 -3 2 -21 -11 -39 -30z"/>
<path d="M98 1207 c-27 -22 -28 -25 -28 -127 l0 -104 35 34 c19 19 35 39 35
44 0 6 -14 -4 -30 -22 l-30 -32 0 84 c0 76 3 87 26 115 30 37 29 38 -8 8z"/>
<path d="M299 1173 c-13 -16 -12 -17 4 -4 16 13 21 21 13 21 -2 0 -10 -8 -17
-17z"/>
<path d="M113 1118 c-24 -32 -24 -41 0 -19 15 14 27 26 27 28 0 8 -19 2 -27
-9z"/>
<path d="M230 1038 c0 -7 -12 -25 -27 -41 -25 -27 -26 -28 -5 -18 12 7 28 21
35 31 7 12 23 20 40 20 16 0 26 4 22 10 -9 14 -65 12 -65 -2z"/>
<path d="M125 1000 c-21 -22 -35 -40 -29 -40 5 0 28 18 49 40 21 22 35 40 29
40 -5 0 -28 -18 -49 -40z"/>
<path d="M249 994 c-22 -25 -22 -26 -3 -16 12 6 24 18 28 27 8 21 3 19 -25
-11z"/>
<path d="M320 940 c-27 -26 -30 -34 -22 -62 8 -31 5 -36 -35 -71 -24 -21 -43
-44 -43 -50 0 -6 31 20 70 58 38 38 67 71 64 74 -3 3 -14 -5 -24 -19 l-20 -25
0 34 c0 24 8 43 27 63 36 38 22 36 -17 -2z"/>
<path d="M309 803 l-34 -36 32 22 c34 23 48 39 41 47 -2 2 -20 -13 -39 -33z"/>
<path d="M1495 1300 c-3 -5 -9 -32 -12 -59 -5 -43 -3 -50 15 -55 23 -8 23 -7
40 -346 l7 -145 70 0 70 0 -3 148 c-3 162 10 198 23 60 4 -49 10 -117 14 -153
l6 -65 55 2 c30 2 60 5 66 7 7 3 13 63 17 163 6 156 -1 235 -21 255 -6 6 -42
13 -81 16 -62 4 -69 7 -61 22 5 9 10 45 12 80 3 60 2 64 -22 71 -38 11 -188
10 -195 -1z m120 -16 l47 -7 -5 -114 c-3 -82 -8 -117 -19 -126 -7 -7 -21 -21
-28 -32 -8 -11 9 1 39 28 59 53 102 66 60 20 -22 -26 -21 -26 9 2 l34 30 -27
3 c-15 2 -36 -4 -48 -14 -15 -12 -13 -9 4 9 22 25 30 27 67 21 33 -5 46 -14
66 -45 23 -34 26 -49 26 -126 0 -49 -3 -118 -7 -155 l-6 -68 -43 0 -44 0 0 48
c1 83 16 134 44 155 15 10 31 29 37 40 7 14 -4 7 -30 -17 l-41 -40 1 55 c1 44
6 59 27 82 14 15 20 27 14 27 -7 0 -17 -9 -24 -20 -10 -16 -24 -20 -61 -20
l-49 0 4 -150 3 -150 -54 0 -53 0 7 239 8 240 -35 6 c-31 6 -34 10 -31 33 10
58 12 59 108 46z m80 -26 c-3 -13 -10 -50 -14 -83 l-9 -60 1 65 c1 74 5 100
18 100 5 0 7 -10 4 -22z m-136 -156 c-1 -57 -3 -69 -9 -47 -12 46 -12 137 0
130 6 -3 9 -41 9 -83z m271 -11 c0 -5 3 -18 6 -28 5 -16 4 -16 -10 1 -18 23
-20 36 -6 36 6 0 10 -4 10 -9z m-91 -178 c-1 -74 -3 -82 -10 -48 -11 56 -11
135 1 135 6 0 10 -35 9 -87z"/>
<path d="M1526 1265 c-9 -25 -7 -30 6 -17 7 7 27 12 46 12 l33 0 -28 -25 c-15
-13 -23 -25 -17 -25 5 0 23 14 39 30 27 28 27 30 8 30 -11 0 -34 3 -50 6 -23
4 -32 2 -37 -11z"/>
<path d="M1610 1215 c-19 -19 -29 -35 -24 -35 11 0 45 34 58 58 12 21 1 14
-34 -23z"/>
<path d="M1620 1145 c-12 -13 -27 -22 -31 -19 -5 3 -9 -83 -9 -191 0 -119 4
-194 9 -190 6 3 7 76 4 181 -6 171 -5 175 15 190 19 13 49 54 39 54 -2 0 -14
-11 -27 -25z"/>
<path d="M1614 1088 l-19 -23 23 19 c21 18 27 26 19 26 -2 0 -12 -10 -23 -22z"/>
<path d="M1785 1010 c-27 -30 -12 -34 15 -5 13 14 19 25 13 25 -5 0 -18 -9
-28 -20z"/>
<path d="M1611 958 c-14 -23 -14 -23 8 -4 22 20 25 26 13 26 -4 0 -13 -10 -21
-22z"/>
<path d="M1792 889 c-32 -29 -33 -32 -29 -97 l3 -67 2 68 c1 37 6 67 11 67 5
0 19 14 31 30 27 37 24 37 -18 -1z"/>
<path d="M1620 895 c-7 -9 -11 -18 -8 -20 3 -3 11 1 18 10 7 9 11 18 8 20 -3
3 -11 -1 -18 -10z"/>
<path d="M1620 845 c-7 -9 -11 -18 -8 -20 3 -3 11 1 18 10 7 9 11 18 8 20 -3
3 -11 -1 -18 -10z"/>
<path d="M1794 808 l-19 -23 23 19 c12 11 22 21 22 23 0 8 -8 2 -26 -19z"/>
<path d="M1625 770 c-10 -11 -13 -20 -7 -20 6 0 16 9 22 20 6 11 9 20 7 20 -2
0 -12 -9 -22 -20z"/>
<path d="M1794 758 l-19 -23 23 19 c21 18 27 26 19 26 -2 0 -12 -10 -23 -22z"/>
<path d="M764 1286 c-3 -7 -4 -38 -2 -67 3 -45 6 -54 23 -57 19 -3 20 -8 13
-85 -10 -126 -10 -149 4 -141 8 5 9 0 5 -17 -4 -13 -7 -41 -7 -61 0 -21 -3
-38 -7 -38 -25 1 -34 25 -44 126 -8 92 -14 115 -37 149 -30 44 -61 54 -157 54
-46 -1 -53 -4 -85 -41 l-35 -41 0 -173 0 -173 25 -12 c28 -13 306 -23 324 -11
6 4 42 7 81 7 l69 0 12 88 c13 101 25 128 17 40 -4 -48 -1 -67 16 -101 l22
-43 77 3 77 3 0 70 c0 65 -2 70 -22 73 -19 3 -23 10 -24 40 -1 20 -1 44 0 53
1 9 -9 26 -23 36 l-25 20 29 28 c17 16 30 34 30 41 0 7 12 22 26 33 34 27 28
50 -21 78 -56 32 -89 30 -117 -7 -29 -40 -38 -38 -27 8 25 109 4 132 -126 132
-63 0 -87 -4 -91 -14z m124 -12 c42 -6 52 -10 52 -26 0 -10 -10 -29 -22 -42
-38 -38 -54 -63 -22 -33 17 15 33 27 37 27 13 0 -7 -36 -38 -66 -32 -31 -32
-32 -49 -200 -19 -199 -19 -197 -5 -192 13 4 15 23 24 218 6 132 6 136 35 165
l30 30 1 -40 c2 -60 0 -68 -29 -97 -14 -15 -23 -30 -20 -33 3 -3 42 37 87 90
45 52 84 95 86 95 3 0 24 -10 49 -22 l44 -21 -74 -60 c-41 -33 -74 -63 -74
-66 0 -3 18 -18 39 -33 34 -24 40 -35 46 -79 5 -34 3 -55 -5 -62 -9 -9 -10 -3
-6 28 l6 40 -12 -31 c-16 -38 -74 -98 -83 -84 -3 5 -3 37 0 70 l6 60 -41 0
-42 0 4 -94 3 -94 -50 5 c-27 3 -51 7 -53 8 -1 1 7 85 18 186 12 101 22 202
23 224 2 39 1 40 -30 38 -34 -3 -46 13 -38 52 2 11 4 26 4 33 1 13 22 15 99 6z
m77 -53 c-3 -15 -6 -49 -7 -75 0 -29 -4 -43 -8 -35 -11 19 0 150 12 143 5 -3
7 -18 3 -33z m-130 -145 c-5 -52 -14 -98 -19 -103 -4 -4 -6 10 -3 32 4 22 9
68 13 103 3 34 9 62 13 62 4 0 2 -42 -4 -94z m-205 44 c29 0 39 -6 58 -35 20
-31 22 -47 22 -160 l0 -125 31 0 c29 0 30 -1 27 -42 -3 -41 -3 -41 -45 -43
-37 -2 -42 1 -46 24 -3 16 1 33 10 44 9 9 14 20 11 23 -11 11 -48 -49 -43 -70
3 -12 2 -15 -1 -7 -4 8 -9 9 -13 3 -9 -15 -102 -18 -127 -4 -12 6 -24 9 -27 6
-3 -3 -14 -1 -24 6 -16 10 -15 10 6 4 14 -3 21 -2 18 3 -4 6 5 20 19 32 20 17
36 22 67 19 l42 -3 3 50 c3 39 9 56 30 75 15 14 34 34 42 45 8 11 -4 4 -25
-16 -22 -20 -61 -44 -87 -54 -43 -16 -48 -21 -48 -48 0 -29 -41 -87 -62 -87
-5 0 -8 35 -6 77 l3 77 78 24 c76 23 77 24 77 57 0 24 7 37 25 49 14 9 25 22
25 28 0 6 -10 2 -23 -10 -17 -16 -36 -22 -70 -22 l-47 0 6 -40 c4 -24 3 -40
-3 -40 -6 0 -24 -3 -41 -6 -30 -6 -31 -5 -37 40 -7 44 -5 49 31 91 35 40 43
44 74 40 19 -3 51 -5 70 -5z m430 -95 c-18 -19 -36 -32 -39 -30 -4 5 58 64 68
65 3 0 -10 -16 -29 -35z m-498 -24 c2 -17 1 -28 -4 -25 -8 5 -12 54 -4 54 2 0
6 -13 8 -29z m38 -1 c0 -11 -4 -20 -10 -20 -5 0 -10 9 -10 20 0 11 5 20 10 20
6 0 10 -9 10 -20z m133 -122 c2 -32 0 -58 -5 -58 -4 0 -8 30 -7 68 1 77 6 73
12 -10z m206 0 c0 -13 -4 -41 -8 -63 -8 -38 -9 -37 -10 23 -1 35 3 62 9 62 6
0 10 -10 9 -22z m-329 -25 c0 -7 -4 -13 -10 -13 -5 0 -10 12 -10 28 0 21 2 24
10 12 5 -8 10 -21 10 -27z m-37 -13 c3 -13 0 -20 -9 -20 -8 0 -14 9 -14 20 0
11 4 20 9 20 5 0 11 -9 14 -20z m562 -66 c3 -25 5 -47 3 -49 -2 -2 -30 -5 -62
-6 -53 -3 -61 0 -69 19 -14 31 23 70 72 75 20 2 39 4 42 5 4 1 10 -19 14 -44z
m-348 -36 c-3 -8 -6 -5 -6 6 -1 11 2 17 5 13 3 -3 4 -12 1 -19z"/>
<path d="M801 1233 c0 -27 1 -27 9 -5 7 16 18 22 41 22 l32 0 -24 -26 c-16
-17 -18 -23 -7 -19 9 4 23 17 31 29 15 22 14 23 -34 25 -48 2 -49 1 -48 -26z"/>
<path d="M1010 1104 c-25 -26 -40 -45 -34 -43 13 5 94 77 94 84 0 14 -20 0
-60 -41z"/>
<path d="M987 1022 c-59 -59 -107 -112 -107 -117 0 -5 50 42 111 103 61 62
109 115 107 117 -2 2 -52 -44 -111 -103z"/>
<path d="M889 1048 c-12 -23 -12 -23 10 -4 23 21 26 26 11 26 -5 0 -15 -10
-21 -22z"/>
<path d="M970 955 c-13 -14 -19 -25 -13 -25 12 0 48 38 41 45 -2 3 -15 -6 -28
-20z"/>
<path d="M1019 924 c-13 -15 -18 -25 -10 -22 13 4 49 48 39 48 -2 0 -15 -12
-29 -26z"/>
<path d="M1024 879 c-16 -16 -22 -28 -14 -24 13 5 56 55 47 55 -2 0 -16 -14
-33 -31z"/>
<path d="M880 865 c-7 -9 -8 -15 -2 -15 5 0 12 7 16 15 3 8 4 15 2 15 -2 0 -9
-7 -16 -15z"/>
<path d="M879 783 c-13 -16 -12 -17 4 -4 9 7 17 15 17 17 0 8 -8 3 -21 -13z"/>
<path d="M549 1093 c-37 -45 -40 -55 -6 -24 20 19 37 36 37 38 0 9 -19 1 -31
-14z"/>
<path d="M496 1067 c-15 -20 -26 -46 -25 -63 0 -29 1 -29 14 8 7 20 21 48 30
62 25 37 11 32 -19 -7z"/>
<path d="M585 1080 c-10 -11 -14 -20 -8 -20 5 0 18 9 28 20 10 11 14 20 8 20
-5 0 -18 -9 -28 -20z"/>
<path d="M655 1020 c-20 -21 -25 -34 -20 -47 8 -16 9 -15 13 6 2 13 14 32 25
42 12 9 19 20 16 23 -3 3 -18 -7 -34 -24z"/>
<path d="M500 995 c-8 -9 -8 -15 -2 -15 12 0 26 19 19 26 -2 2 -10 -2 -17 -11z"/>
<path d="M549 913 c-13 -16 -12 -17 4 -4 9 7 17 15 17 17 0 8 -8 3 -21 -13z"/>
<path d="M680 917 c-8 -7 -24 -24 -35 -37 -12 -15 -4 -11 18 9 33 31 42 42 35
41 -2 0 -10 -6 -18 -13z"/>
<path d="M498 908 c-17 -14 -32 -88 -17 -88 5 0 9 14 9 32 0 17 7 40 17 50 19
21 14 24 -9 6z"/>
<path d="M651 815 c-17 -19 -41 -36 -53 -36 -18 -1 -19 -2 -5 -6 18 -5 18 -6
1 -26 -10 -12 10 5 44 38 34 33 62 61 62 62 0 12 -23 -3 -49 -32z"/>
<path d="M529 763 l-24 -28 30 25 c17 14 32 26 34 28 2 1 0 2 -6 2 -5 0 -20
-12 -34 -27z"/>
<path d="M728 783 c10 -4 8 -11 -9 -29 -12 -13 -18 -24 -11 -24 6 0 20 14 32
30 l21 30 -23 -1 c-13 0 -17 -3 -10 -6z"/>
<path d="M1043 777 c-30 -29 -30 -47 0 -19 12 11 33 25 47 31 l25 10 -25 0
c-14 0 -35 -10 -47 -22z"/>
<path d="M1100 755 c-7 -9 -11 -18 -8 -20 3 -3 11 1 18 10 7 9 11 18 8 20 -3
3 -11 -1 -18 -10z"/>
<path d="M1939 1108 l-36 -43 0 -172 1 -172 30 -13 c21 -8 80 -13 176 -13
l145 0 3 60 c2 47 0 62 -14 72 -12 9 -18 32 -22 88 -2 41 -9 78 -13 81 -5 3
-9 22 -9 42 0 27 -8 48 -27 70 -27 31 -32 33 -113 38 l-85 5 -36 -43z m199 -1
c33 -26 42 -66 42 -187 l0 -120 31 0 c30 0 31 -2 25 -31 -3 -17 -6 -37 -6 -43
0 -6 -18 -11 -40 -12 -35 -1 -41 2 -47 24 -4 18 -1 29 12 38 10 8 16 16 14 19
-8 8 -59 -45 -59 -61 0 -12 -14 -15 -74 -13 -40 1 -84 8 -97 15 -29 16 -17 19
14 3 21 -10 21 -10 -1 8 -21 17 -23 26 -20 93 l3 74 78 24 77 24 0 39 0 39
-46 0 -46 0 7 -39 c6 -37 5 -38 -26 -45 -57 -11 -59 -9 -59 40 0 38 6 52 38
89 l37 43 65 -5 c36 -3 71 -10 78 -16z m-108 -99 c0 -19 -2 -20 -10 -8 -13 19
-13 30 0 30 6 0 10 -10 10 -22z m40 -7 c0 -10 -8 -21 -18 -23 -17 -5 -17 -2
-8 18 13 29 26 31 26 5z m132 -133 c2 -27 0 -48 -4 -48 -5 0 -7 30 -7 68 2 69
6 62 11 -20z"/>
<path d="M1976 1077 c-28 -27 -36 -42 -35 -68 l1 -34 8 35 c5 19 23 47 40 63
18 16 30 31 27 33 -2 3 -21 -10 -41 -29z"/>
<path d="M2064 1078 l-29 -33 33 29 c30 28 37 36 29 36 -2 0 -16 -15 -33 -32z"/>
<path d="M2104 1076 c-10 -8 -16 -17 -13 -20 3 -3 14 3 24 14 21 23 17 26 -11
6z"/>
<path d="M2129 1019 c-9 -17 -13 -19 -20 -8 -6 10 -9 6 -9 -13 0 -16 5 -28 10
-28 6 0 10 5 10 12 0 6 10 22 22 35 12 13 16 23 10 23 -6 0 -16 -10 -23 -21z"/>
<path d="M1969 983 c-13 -16 -12 -17 4 -4 16 13 21 21 13 21 -2 0 -10 -8 -17
-17z"/>
<path d="M2116 959 c-21 -21 -34 -39 -29 -39 11 0 78 68 72 74 -2 2 -21 -13
-43 -35z"/>
<path d="M2034 918 l-19 -23 23 19 c21 18 27 26 19 26 -2 0 -12 -10 -23 -22z"/>
<path d="M2125 890 c-16 -16 -26 -32 -24 -35 3 -3 18 9 34 25 16 16 26 32 24
35 -3 3 -18 -9 -34 -25z"/>
<path d="M1949 883 c-5 -15 -9 -37 -7 -49 3 -22 3 -22 23 4 13 19 14 23 3 14
-14 -12 -16 -10 -11 10 3 13 10 29 16 36 6 8 6 12 -2 12 -6 0 -16 -12 -22 -27z"/>
<path d="M2045 895 c-16 -7 -33 -11 -37 -8 -5 2 -8 -16 -8 -41 0 -44 1 -46 29
-46 16 0 36 -3 45 -6 14 -5 16 3 16 55 0 66 0 66 -45 46z m24 -37 c-1 -31 -1
-31 -8 -8 -5 14 -6 28 -4 33 9 15 13 6 12 -25z m-26 -18 c3 -13 0 -20 -9 -20
-8 0 -14 9 -14 20 0 11 4 20 9 20 5 0 11 -9 14 -20z"/>
<path d="M2132 847 c-38 -39 -43 -61 -6 -26 24 22 50 59 41 59 -2 0 -17 -15
-35 -33z"/>
<path d="M1960 805 c-7 -9 -11 -18 -8 -20 3 -3 11 1 18 10 7 9 11 18 8 20 -3
3 -11 -1 -18 -10z"/>
<path d="M2000 764 c-13 -13 -18 -24 -12 -24 7 0 17 9 24 19 9 15 19 18 47 14
43 -7 39 2 -5 10 -25 5 -36 1 -54 -19z"/>
<path d="M2177 765 c-13 -19 -14 -23 -3 -19 8 3 17 12 20 20 3 9 10 12 16 9 5
-3 10 -1 10 4 0 19 -25 11 -43 -14z"/>
<path d="M2029 743 c-13 -15 -12 -15 9 -4 23 12 28 21 13 21 -5 0 -15 -7 -22
-17z"/>
<path d="M1214 1092 c-19 -29 -42 -234 -27 -239 5 -2 7 -38 5 -82 l-4 -78 54
-6 c82 -10 122 -8 154 7 16 8 42 19 57 25 l28 11 -3 102 -3 103 -77 3 c-45 2
-78 7 -78 13 0 6 28 9 73 8 l72 -2 -1 71 c0 39 -2 73 -5 75 -2 3 -54 7 -116 9
l-112 6 -17 -26z m41 -12 c-11 -13 -14 -20 -6 -20 8 0 4 -10 -8 -26 -16 -21
-21 -40 -20 -83 l2 -56 9 55 c10 59 32 106 47 103 5 -1 15 5 23 15 11 15 11
16 -3 5 -9 -7 -19 -10 -22 -7 -16 16 10 24 83 24 l78 0 4 -55 3 -55 -30 0
c-16 0 -54 3 -83 7 l-53 6 37 38 c21 22 34 39 28 39 -10 0 -57 -48 -85 -85
-13 -18 -13 -19 4 -6 15 12 17 10 17 -20 0 -23 -6 -38 -20 -47 -11 -7 -20 -17
-20 -24 0 -6 10 -2 23 10 25 23 54 26 145 16 l52 -7 0 -63 c0 -56 -3 -64 -27
-84 -23 -17 -24 -19 -5 -10 13 7 26 9 29 6 8 -7 -39 -24 -53 -19 -6 2 -17 -3
-24 -12 -9 -11 -32 -15 -91 -15 l-79 0 0 56 0 56 68 -7 c37 -4 72 -8 77 -9 6
0 11 14 13 33 l3 34 -80 -6 -81 -6 0 84 c0 46 5 87 10 90 6 4 8 10 6 14 -7 10
22 51 36 51 6 0 3 -9 -7 -20z m49 -115 c-4 -8 -8 -15 -10 -15 -2 0 -4 7 -4 15
0 8 4 15 10 15 5 0 7 -7 4 -15z m39 -112 c-13 -2 -35 -2 -50 0 -16 2 -5 4 22
4 28 0 40 -2 28 -4z m-55 -20 c-10 -2 -26 -2 -35 0 -10 3 -2 5 17 5 19 0 27
-2 18 -5z"/>
<path d="M1375 1030 c-16 -16 -24 -30 -19 -30 6 0 23 14 39 30 16 17 24 30 19
30 -6 0 -23 -13 -39 -30z"/>
<path d="M1410 1015 c-7 -9 -8 -15 -2 -15 5 0 12 7 16 15 3 8 4 15 2 15 -2 0
-9 -7 -16 -15z"/>
<path d="M1290 895 c-8 -9 -8 -15 -2 -15 12 0 26 19 19 26 -2 2 -10 -2 -17
-11z"/>
<path d="M1401 876 c-15 -16 -21 -32 -18 -48 4 -21 4 -20 6 5 0 15 5 27 11 27
5 0 14 9 20 20 14 26 8 25 -19 -4z"/>
<path d="M1395 793 c-22 -21 -47 -47 -54 -58 -8 -11 11 5 42 35 52 50 62 60
54 60 -1 0 -20 -17 -42 -37z"/>
<path d="M1227 793 c-4 -3 -7 -18 -6 -32 l1 -26 9 26 c8 21 17 26 46 27 l36 2
-29 -31 c-16 -17 -22 -28 -13 -24 9 3 26 19 38 35 l22 30 -49 0 c-27 0 -52 -3
-55 -7z"/>
<path d="M2267 1114 c-4 -4 -7 -34 -7 -67 0 -50 3 -60 20 -64 18 -5 20 -14 20
-77 0 -40 3 -76 6 -79 4 -4 7 -35 8 -69 l1 -63 60 4 c33 1 64 5 68 8 8 5 4 75
-9 181 -3 26 -1 42 5 42 6 0 11 -16 11 -35 0 -19 5 -35 11 -35 8 0 9 19 4 61
-5 44 -4 60 4 55 13 -9 15 -123 1 -128 -5 -2 -7 -32 -3 -76 l6 -73 61 3 61 3
3 73 c2 43 7 70 12 67 6 -4 10 14 11 42 1 26 5 59 10 73 8 25 5 -68 -7 -207
l-6 -62 49 -6 c98 -13 88 -32 91 160 1 94 -1 179 -6 190 -5 11 -13 34 -18 50
l-9 30 -226 3 c-124 1 -228 -1 -232 -4z m123 -52 c0 -21 -6 -44 -12 -52 -7 -7
4 -1 25 15 20 15 37 31 37 35 0 4 10 12 23 18 22 11 22 11 1 11 -12 1 -29 -9
-38 -21 l-17 -23 7 24 c4 16 3 21 -5 17 -6 -4 -11 -3 -11 2 0 5 27 10 60 11
55 1 61 -1 71 -22 16 -36 -27 -77 -82 -77 l-40 0 6 -117 c4 -65 8 -128 11
-140 4 -21 1 -23 -46 -23 l-51 0 7 78 c3 42 9 105 13 140 l7 62 -33 0 c-33 0
-33 0 -33 50 l0 50 50 0 50 0 0 -38z m165 29 c3 -5 1 -12 -5 -16 -5 -3 -10 1
-10 9 0 18 6 21 15 7z m127 -17 c11 -14 23 -23 26 -20 3 3 -3 15 -13 26 -10
11 -13 20 -7 20 15 0 35 -38 26 -51 -3 -6 1 -18 10 -28 14 -15 16 -40 14 -157
l-3 -138 -44 -8 c-25 -4 -47 -6 -49 -4 -2 3 1 64 7 136 9 115 13 134 30 147
12 8 21 19 21 25 0 6 -11 1 -24 -11 -19 -18 -33 -22 -60 -19 l-36 4 0 -132 c0
-144 0 -144 -61 -144 l-29 0 0 133 0 133 36 35 c19 18 36 32 37 30 1 -2 18 4
37 12 24 10 29 16 16 16 -11 1 -28 -6 -38 -16 -10 -9 -18 -12 -18 -7 1 21 18
33 55 37 22 2 42 4 44 5 2 1 12 -9 23 -24z m-350 -141 c-5 -76 -10 -83 -11
-15 0 34 2 62 7 62 4 0 6 -21 4 -47z m396 -230 c-10 -2 -26 -2 -35 0 -10 3 -2
5 17 5 19 0 27 -2 18 -5z"/>
<path d="M2300 1056 c0 -36 18 -41 46 -15 26 25 18 39 -23 39 -18 0 -23 -6
-23 -24z m50 11 c0 -2 -9 -12 -20 -22 -19 -18 -20 -17 -20 3 0 15 6 22 20 22
11 0 20 -2 20 -3z"/>
<path d="M2459 1043 l-34 -37 32 25 c26 20 50 49 40 49 -2 0 -19 -17 -38 -37z"/>
<path d="M2377 962 c-20 -22 -38 -230 -19 -218 8 5 12 41 12 103 0 76 4 100
17 115 9 10 14 18 11 18 -3 0 -12 -8 -21 -18z"/>
<path d="M2390 768 c-12 -22 -12 -22 6 -6 10 10 15 20 12 24 -4 3 -12 -5 -18
-18z"/>
<path d="M2650 1035 c-13 -14 -19 -25 -13 -25 12 0 48 38 41 45 -2 3 -15 -6
-28 -20z"/>
<path d="M2545 1008 l-47 -42 6 -110 c3 -60 8 -112 11 -114 3 -3 5 2 5 11 0 9
8 21 19 26 10 6 22 18 25 28 6 14 2 13 -17 -5 l-24 -23 -6 88 -6 88 46 47 c58
59 52 62 -12 6z"/>
<path d="M2697 955 c-26 -23 -28 -32 -35 -125 -4 -55 -4 -100 0 -100 5 0 8 12
8 27 0 17 12 39 32 60 18 18 29 33 25 33 -3 0 -18 -12 -32 -27 l-25 -28 0 33
c0 17 8 40 18 50 34 35 48 58 19 33 -26 -24 -27 -24 -27 -4 0 12 6 23 14 26
12 5 43 48 34 47 -2 0 -16 -12 -31 -25z"/>
<path d="M2535 920 c-10 -11 -13 -20 -8 -20 13 0 38 29 31 35 -3 3 -13 -4 -23
-15z"/>
<path d="M2547 882 c-19 -20 -23 -37 -7 -27 10 6 33 45 27 45 -2 0 -11 -8 -20
-18z"/>
<path d="M2691 768 c-14 -23 -14 -23 8 -4 22 20 25 26 13 26 -4 0 -13 -10 -21
-22z"/>
<path d="M2549 753 c-13 -16 -12 -17 4 -4 9 7 17 15 17 17 0 8 -8 3 -21 -13z"/>
<path d="M2803 834 c-6 -15 2 -122 10 -130 2 -2 39 -5 83 -7 l79 -2 3 29 c2
16 -2 39 -9 52 -6 12 -9 29 -6 37 10 26 -16 37 -85 37 -53 0 -70 -4 -75 -16z
m136 -20 c1 -1 0 -25 -4 -51 l-6 -49 -47 6 c-46 5 -47 6 -52 46 -9 62 -5 65
53 58 29 -4 54 -8 56 -10z m14 -79 c4 -8 2 -17 -3 -20 -6 -4 -10 3 -10 14 0
25 6 27 13 6z"/>
<path d="M2841 788 c1 -16 3 -18 6 -6 2 9 14 19 26 21 18 4 17 5 -5 6 -23 1
-28 -3 -27 -21z"/>
<path d="M2890 765 c-13 -14 -19 -25 -13 -25 12 0 48 38 41 45 -2 3 -15 -6
-28 -20z"/>
<path d="M44 647 c-3 -8 -4 -52 -2 -98 l3 -84 110 0 110 0 3 -37 c2 -23 -1
-38 -8 -38 -7 0 -9 12 -4 35 4 23 2 35 -5 35 -6 0 -14 -14 -18 -30 -4 -22 -10
-29 -22 -26 -9 3 -50 6 -91 7 l-75 2 -2 -74 c-1 -50 1 -66 7 -49 4 14 8 42 9
63 l1 39 117 -7 c107 -7 116 -6 110 10 -4 9 -7 35 -7 57 l0 40 -105 -7 c-58
-4 -105 -4 -106 1 -1 5 -2 42 -3 82 l-2 72 39 0 c23 0 36 4 32 10 -9 15 -85
12 -91 -3z"/>
<path d="M2642 650 c-22 -9 -23 -14 -18 -73 20 -217 20 -214 -6 -214 l-24 0 4
132 4 133 -57 7 c-31 4 -60 4 -65 -1 -11 -12 -18 -134 -8 -128 4 3 8 -29 8
-70 0 -46 -4 -78 -12 -82 -8 -5 -9 9 -5 54 4 39 3 62 -3 62 -6 0 -10 -25 -10
-55 0 -34 -4 -55 -11 -55 -8 0 -9 27 -3 98 4 53 8 115 9 137 l0 40 -69 3 -69
3 5 -71 c3 -39 1 -73 -3 -76 -5 -3 -9 -37 -9 -75 0 -61 -2 -70 -17 -67 -14 2
-18 -4 -19 -32 -1 -49 10 -62 16 -20 5 32 8 35 38 34 38 -2 37 -6 21 165 -6
62 -8 115 -6 118 3 2 25 2 50 -2 38 -6 43 -10 41 -28 -2 -12 -5 -73 -7 -134
l-4 -113 38 0 39 0 0 135 0 135 45 0 45 0 0 -134 0 -135 41 1 40 0 -5 37 c-3
20 -8 82 -12 139 l-6 102 28 0 c16 0 39 -3 52 -6 21 -6 22 -10 22 -147 0 -117
-3 -144 -17 -159 -14 -16 -14 -18 -1 -18 34 0 39 24 36 196 l-3 169 -45 2
c-25 1 -56 -2 -68 -7z m98 -20 c0 -5 -14 -7 -32 -3 -46 8 -48 13 -5 13 21 0
37 -4 37 -10z m-407 -213 c3 -31 1 -60 -4 -63 -5 -3 -9 25 -9 62 0 80 6 81 13
1z"/>
<path d="M156 634 c-16 -41 -9 -47 50 -40 52 6 58 4 110 -31 l54 -38 0 -87 c0
-80 -2 -89 -26 -115 -36 -39 -49 -64 -29 -57 8 3 13 9 10 14 -6 10 43 55 52
46 4 -4 0 -12 -10 -17 -9 -6 -15 -15 -11 -20 4 -6 13 -4 24 6 16 14 18 32 16
146 -1 118 -3 130 -22 144 -24 16 -60 26 -126 32 -32 3 -48 10 -48 19 0 19
-36 18 -44 -2z m24 -19 c0 -8 -4 -15 -10 -15 -5 0 -7 7 -4 15 4 8 8 15 10 15
2 0 4 -7 4 -15z m195 -65 c11 -18 -10 -10 -40 16 l-30 25 32 -15 c17 -9 35
-20 38 -26z"/>
<path d="M1195 640 c-4 -6 -5 -42 -4 -80 1 -39 0 -72 -2 -74 -2 -2 -3 -47 -1
-100 3 -81 6 -96 20 -96 10 0 12 3 6 9 -5 6 -8 46 -6 90 l4 81 71 1 72 2 -75
13 -75 13 75 -5 c43 -2 77 -10 82 -17 5 -7 8 1 8 20 l0 31 -80 -5 -80 -6 0 55
0 54 72 2 c66 3 75 0 117 -28 25 -18 35 -22 22 -11 -27 24 -16 28 15 6 18 -12
21 -26 23 -95 l2 -80 -48 -1 c-26 -1 -66 -3 -88 -5 -30 -3 -46 2 -65 19 l-25
22 23 -26 c12 -14 22 -38 22 -54 l0 -28 85 6 85 6 -2 -45 c-2 -60 9 -67 17
-10 11 74 6 79 -75 71 -43 -4 -70 -3 -70 3 0 10 69 22 126 22 l34 0 0 101 0
100 -55 25 c-45 19 -72 24 -140 24 -46 0 -87 -5 -90 -10z m109 -265 c3 -8 1
-15 -4 -15 -6 0 -10 7 -10 15 0 8 2 15 4 15 2 0 6 -7 10 -15z"/>
<path d="M1717 573 c-16 -198 -20 -233 -29 -233 -7 0 -8 54 -3 150 l7 150 -76
0 -76 0 0 -132 c0 -129 5 -178 19 -178 3 0 5 65 3 145 l-3 145 54 0 54 0 -5
-150 -5 -150 47 0 46 0 0 62 0 62 38 -35 37 -34 -37 40 c-20 22 -38 54 -41 70
-2 17 -5 -9 -6 -57 -1 -76 -8 -107 -23 -93 -2 2 -1 32 3 67 4 35 11 100 15
146 l7 83 41 -7 c23 -3 42 -7 42 -8 9 -8 21 -285 14 -311 -1 -5 -2 -17 -1 -25
1 -11 5 -10 14 5 14 25 10 334 -5 353 -6 7 -34 12 -68 12 l-57 0 -6 -77z"/>
<path d="M2872 640 c-29 -4 -55 -10 -58 -13 -9 -9 -16 -134 -8 -139 5 -2 42
-2 83 1 l73 6 4 40 c11 108 11 110 -16 111 -14 1 -49 -2 -78 -6z m59 -42 l2
-23 4 23 c2 12 8 22 13 22 6 0 5 -11 0 -26 -6 -14 -10 -39 -10 -55 0 -29 -1
-29 -54 -29 -30 0 -57 4 -60 8 -2 4 -2 27 1 49 5 38 9 42 37 46 64 8 66 8 67
-15z"/>
<path d="M2870 593 c0 -5 13 -17 28 -27 l27 -19 -24 26 c-26 28 -31 32 -31 20z"/>
<path d="M2841 543 c-1 -18 4 -23 22 -22 15 1 17 3 5 6 -9 2 -19 12 -21 21 -3
12 -5 10 -6 -5z"/>
<path d="M473 629 c-18 -5 -34 -13 -37 -17 -2 -4 -1 -54 2 -110 4 -56 4 -102
0 -102 -5 0 -8 -26 -8 -58 0 -47 4 -59 21 -70 18 -12 19 -11 10 7 -6 11 -11
41 -11 67 0 43 2 46 23 40 12 -3 33 -6 46 -6 22 0 23 -3 18 -44 -6 -38 -4 -44
11 -41 9 2 30 4 45 4 26 1 28 3 25 38 -3 37 -3 38 -80 61 l-78 24 0 73 c0 72
0 73 36 100 32 24 42 27 87 21 29 -3 54 -11 56 -17 2 -6 15 -24 30 -38 14 -15
20 -20 13 -10 -8 10 -10 27 -6 43 5 23 11 26 48 26 l43 0 1 -45 c2 -44 1 -45
-28 -45 l-30 0 1 -112 c1 -62 5 -124 9 -138 5 -14 6 31 3 108 -4 96 -3 132 6
132 8 0 9 -16 5 -52 -3 -29 -1 -64 5 -78 10 -26 12 -14 15 93 1 20 32 44 44
32 3 -2 5 -59 4 -126 -1 -121 8 -156 15 -57 2 29 4 69 5 88 2 19 -1 70 -5 113
l-8 77 53 0 53 0 0 -92 0 -92 38 -2 37 -3 -5 56 c-4 41 -1 68 12 99 l18 44 62
0 63 0 -3 -50 c-2 -46 -4 -50 -27 -50 -24 0 -26 -3 -23 -37 l2 -38 -12 43
c-18 66 -26 41 -8 -27 l15 -60 -29 -23 c-16 -13 -35 -28 -43 -34 -12 -8 -6
-17 29 -44 l44 -34 -35 39 c-19 21 -28 35 -19 32 30 -10 68 42 75 105 6 51 9
57 28 55 20 -2 21 3 21 68 l0 70 -80 0 -80 0 -18 -35 c-13 -27 -16 -50 -13
-98 3 -35 1 -60 -4 -57 -5 3 -12 46 -16 95 -3 50 -10 92 -14 95 -4 2 -37 1
-74 -3 -37 -5 -69 -5 -72 0 -7 11 -271 9 -311 -3z m7 -34 c-7 -8 -18 -15 -24
-15 -6 0 -2 7 8 15 25 19 32 19 16 0z m320 -31 c0 -21 -4 -33 -10 -29 -5 3
-10 22 -10 41 0 21 4 33 10 29 6 -3 10 -22 10 -41z m138 -79 c1 -25 -2 -45 -8
-45 -6 0 -10 25 -10 58 0 66 16 55 18 -13z m-344 -138 c8 -12 7 -20 -2 -29 -9
-9 -12 -7 -12 10 0 12 -5 22 -11 22 -5 0 -9 -8 -7 -17 1 -10 -2 -19 -7 -20
-10 -2 -9 17 0 45 6 17 25 11 39 -11z"/>
<path d="M1941 627 l-34 -12 -3 -172 c-2 -127 1 -173 9 -173 8 0 11 19 9 61
-4 55 -2 61 13 55 9 -3 28 -6 41 -6 16 0 28 -8 33 -22 8 -20 10 -21 16 -6 5
14 11 15 26 7 23 -12 25 -49 3 -49 -10 0 -14 6 -11 15 4 8 2 17 -2 20 -5 2
-11 -6 -13 -20 -5 -23 -2 -25 29 -25 33 0 34 1 31 36 -3 36 -4 37 -80 62 l-78
25 0 70 c0 53 4 75 18 90 16 19 16 20 -5 8 -15 -8 -23 -8 -23 -1 0 9 20 14 47
11 6 -1 14 3 18 9 7 11 47 13 93 4 19 -4 34 -16 42 -33 l13 -26 9 33 c8 29 12
32 47 32 35 0 39 -3 45 -31 10 -53 8 -59 -24 -59 l-30 0 0 -117 c0 -65 5 -125
10 -133 6 -10 7 29 3 113 -4 88 -3 127 5 127 7 0 9 -18 5 -52 -3 -29 -1 -69 5
-88 10 -33 10 -32 13 30 1 36 3 73 2 83 0 10 8 17 19 17 17 0 19 7 16 63 l-3
62 -140 2 c-89 1 -152 -2 -174 -10z"/>
<path d="M145 570 c27 -27 51 -48 53 -45 5 5 -85 95 -96 95 -3 0 16 -22 43
-50z"/>
<path d="M1260 603 c0 -12 38 -48 45 -41 3 2 -6 15 -20 28 -14 13 -25 19 -25
13z"/>
<path d="M1380 555 c29 -30 56 -52 59 -50 6 7 -90 105 -103 105 -6 0 14 -25
44 -55z"/>
<path d="M710 596 c0 -2 8 -10 18 -17 15 -13 16 -12 3 4 -13 16 -21 21 -21 13z"/>
<path d="M1090 596 c0 -2 8 -10 18 -17 15 -13 16 -12 3 4 -13 16 -21 21 -21
13z"/>
<path d="M1221 583 c-2 -37 10 -53 39 -53 16 0 32 5 35 10 4 6 -7 10 -25 10
-25 0 -31 4 -26 16 3 8 2 12 -3 9 -5 -3 -12 3 -14 12 -4 14 -5 13 -6 -4z"/>
<path d="M1580 434 c0 -92 2 -165 4 -163 9 10 14 319 5 324 -5 4 -9 -59 -9
-161z"/>
<path d="M1763 535 c0 -38 2 -53 4 -32 2 20 2 52 0 70 -2 17 -4 1 -4 -38z"/>
<path d="M2038 590 c28 -31 2 -42 -31 -12 -19 17 -19 16 -6 -5 10 -16 23 -23
46 -23 40 0 41 9 5 34 -15 11 -21 13 -14 6z"/>
<path d="M2160 594 c0 -17 37 -47 52 -41 10 4 10 6 0 6 -8 1 -22 11 -33 24
-10 12 -18 17 -19 11z"/>
<path d="M2351 538 c2 -106 16 -136 18 -36 0 48 -3 90 -9 93 -6 4 -10 -17 -9
-57z"/>
<path d="M2658 533 c5 -92 17 -100 15 -10 -1 39 -5 73 -10 74 -4 2 -7 -27 -5
-64z"/>
<path d="M81 548 l-1 -48 83 2 82 2 -75 5 -75 6 -6 40 -6 40 -2 -47z"/>
<path d="M525 570 c19 -21 95 -29 95 -10 0 6 -15 8 -39 4 -30 -5 -39 -3 -44
10 -4 9 -12 16 -18 16 -7 0 -5 -8 6 -20z"/>
<path d="M833 538 c4 -29 9 -90 13 -136 11 -128 20 -105 12 31 -3 67 -7 130
-7 140 -1 9 -6 17 -12 17 -8 0 -10 -16 -6 -52z"/>
<path d="M1048 561 c18 -17 40 -31 50 -30 11 1 8 5 -10 12 -16 6 -28 14 -28
19 0 4 -10 12 -22 18 -17 8 -14 3 10 -19z"/>
<path d="M1616 576 c3 -8 13 -17 22 -21 13 -5 13 -2 -3 15 -21 24 -26 25 -19
6z"/>
<path d="M1795 570 c10 -11 20 -20 22 -20 2 0 -1 9 -7 20 -6 11 -16 20 -22 20
-6 0 -3 -9 7 -20z"/>
<path d="M2510 558 c-1 -18 -3 -62 -6 -98 -3 -36 -3 -62 1 -58 9 8 20 188 11
188 -3 0 -6 -15 -6 -32z"/>
<path d="M109 563 c12 -23 29 -38 37 -31 2 3 -8 15 -22 29 -25 23 -26 23 -15
2z"/>
<path d="M255 541 c21 -22 41 -41 43 -41 8 0 -51 65 -67 74 -9 5 2 -10 24 -33z"/>
<path d="M2380 576 c0 -2 8 -10 18 -17 15 -13 16 -12 3 4 -13 16 -21 21 -21
13z"/>
<path d="M490 562 c0 -12 19 -26 26 -19 2 2 -2 10 -11 17 -9 8 -15 8 -15 2z"/>
<path d="M870 566 c0 -2 8 -10 18 -17 15 -13 16 -12 3 4 -13 16 -21 21 -21 13z"/>
<path d="M2690 566 c0 -2 8 -10 18 -17 15 -13 16 -12 3 4 -13 16 -21 21 -21
13z"/>
<path d="M728 553 c6 -2 18 -2 25 0 6 3 1 5 -13 5 -14 0 -19 -2 -12 -5z"/>
<path d="M1010 552 c0 -5 7 -15 15 -22 8 -7 15 -9 15 -6 0 4 -7 14 -15 22 -8
9 -15 11 -15 6z"/>
<path d="M2150 550 c0 -5 5 -10 11 -10 5 0 7 5 4 10 -3 6 -8 10 -11 10 -2 0
-4 -4 -4 -10z"/>
<path d="M320 525 c13 -14 26 -25 28 -25 3 0 -5 11 -18 25 -13 14 -26 25 -28
25 -3 0 5 -11 18 -25z"/>
<path d="M660 515 c19 -19 36 -35 38 -35 8 0 -53 69 -62 69 -6 1 5 -15 24 -34z"/>
<path d="M1789 533 c12 -24 31 -39 31 -25 0 5 -10 17 -21 28 -22 19 -22 19
-10 -3z"/>
<path d="M1950 546 c0 -2 8 -10 18 -17 15 -13 16 -12 3 4 -13 16 -21 21 -21
13z"/>
<path d="M530 496 c0 -39 3 -44 28 -49 15 -3 35 -9 45 -12 15 -6 17 0 17 49
l0 56 -45 0 -45 0 0 -44z m46 8 c-3 -9 -6 -20 -6 -25 0 -5 -4 -9 -10 -9 -5 0
-10 11 -10 25 0 16 6 25 16 25 11 0 14 -5 10 -16z m34 -23 c0 -11 -4 -23 -10
-26 -6 -4 -10 5 -10 19 0 14 5 26 10 26 6 0 10 -9 10 -19z"/>
<path d="M2000 496 c0 -37 3 -44 23 -49 12 -3 32 -9 45 -13 23 -6 23 -5 20 50
l-3 56 -42 0 -43 0 0 -44z m42 -1 c-2 -14 -8 -25 -13 -25 -5 0 -9 11 -9 25 0
14 6 25 14 25 9 0 12 -8 8 -25z m24 -43 c-11 -10 -14 3 -8 33 l7 30 3 -28 c2
-16 1 -31 -2 -35z"/>
<path d="M2100 527 c0 -2 15 -16 33 -33 l32 -29 -29 33 c-28 30 -36 37 -36 29z"/>
<path d="M2690 521 c0 -5 7 -15 17 -22 15 -13 15 -12 4 9 -12 23 -21 28 -21
13z"/>
<path d="M1382 495 c0 -16 2 -22 5 -12 2 9 2 23 0 30 -3 6 -5 -1 -5 -18z"/>
<path d="M1944 480 c7 -42 19 -60 41 -60 6 1 3 6 -7 13 -9 7 -18 28 -21 46 -3
18 -9 36 -13 39 -4 4 -4 -13 0 -38z"/>
<path d="M478 473 c4 -37 16 -53 37 -53 6 1 2 7 -7 14 -11 8 -18 26 -18 45 0
17 -4 31 -8 31 -4 0 -6 -17 -4 -37z"/>
<path d="M1625 490 c10 -11 20 -20 23 -20 3 0 -3 9 -13 20 -10 11 -20 20 -23
20 -3 0 3 -9 13 -20z"/>
<path d="M1009 473 c12 -23 29 -38 37 -31 2 3 -8 15 -22 29 -25 23 -26 23 -15
2z"/>
<path d="M2613 435 c0 -33 2 -45 4 -27 2 18 2 45 0 60 -2 15 -4 0 -4 -33z"/>
<path d="M301 468 c0 -9 -4 -25 -7 -35 -5 -17 -5 -17 6 0 6 10 9 25 7 35 -4
15 -5 15 -6 0z"/>
<path d="M320 476 c0 -2 8 -10 18 -17 15 -13 16 -12 3 4 -13 16 -21 21 -21 13z"/>
<path d="M2100 477 c0 -2 15 -16 33 -33 l32 -29 -29 33 c-28 30 -36 37 -36 29z"/>
<path d="M2530 476 c0 -2 8 -10 18 -17 15 -13 16 -12 3 4 -13 16 -21 21 -21
13z"/>
<path d="M630 467 c0 -2 14 -16 32 -33 30 -28 30 -17 0 19 -13 15 -32 23 -32
14z"/>
<path d="M1406 455 c4 -8 11 -15 16 -15 6 0 5 6 -2 15 -7 8 -14 15 -16 15 -2
0 -1 -7 2 -15z"/>
<path d="M1795 450 c10 -11 20 -20 23 -20 3 0 -3 9 -13 20 -10 11 -20 20 -23
20 -3 0 3 -9 13 -20z"/>
<path d="M630 421 c0 -5 12 -17 28 -26 l27 -18 -24 27 c-26 28 -31 31 -31 17z"/>
<path d="M920 388 c41 -45 50 -53 50 -45 0 2 -21 23 -47 47 l-48 45 45 -47z"/>
<path d="M1010 420 c0 -5 10 -15 23 -21 22 -12 22 -12 3 10 -21 23 -26 26 -26
11z"/>
<path d="M1225 376 c3 -46 9 -64 26 -80 23 -21 23 -21 6 0 -9 11 -18 34 -18
50 -1 16 -5 43 -10 59 -6 22 -7 15 -4 -29z"/>
<path d="M2530 426 c0 -2 8 -10 18 -17 15 -13 16 -12 3 4 -13 16 -21 21 -21
13z"/>
<path d="M2100 395 c13 -14 18 -25 12 -25 -7 0 -12 -9 -12 -20 0 -11 5 -20 10
-20 6 0 10 10 10 21 0 19 2 20 18 8 9 -7 1 4 -17 24 -19 20 -37 37 -40 37 -2
0 6 -11 19 -25z"/>
<path d="M325 390 c10 -11 20 -20 23 -20 3 0 -3 9 -13 20 -10 11 -20 20 -23
20 -3 0 3 -9 13 -20z"/>
<path d="M975 380 c10 -11 20 -20 23 -20 3 0 -3 9 -13 20 -10 11 -20 20 -23
20 -3 0 3 -9 13 -20z"/>
<path d="M634 359 c-3 -6 -1 -16 5 -22 8 -8 11 -5 11 11 0 24 -5 28 -16 11z"/>
<path d="M833 335 c0 -22 2 -30 4 -17 2 12 2 30 0 40 -3 9 -5 -1 -4 -23z"/>
<path d="M110 357 c0 -2 15 -16 33 -33 l32 -29 -29 33 c-28 30 -36 37 -36 29z"/>
<path d="M471 329 c-1 -15 8 -37 20 -50 l20 -24 -12 24 c-6 14 -15 36 -20 50
l-7 26 -1 -26z"/>
<path d="M1055 330 c-3 -5 9 -17 27 -26 l33 -17 -24 27 c-28 29 -28 29 -36 16z"/>
<path d="M1532 310 c0 -19 2 -27 5 -17 2 9 2 25 0 35 -3 9 -5 1 -5 -18z"/>
<path d="M1941 319 c-1 -15 8 -34 21 -45 l22 -19 -16 25 c-9 14 -18 35 -21 45
-4 16 -5 14 -6 -6z"/>
<path d="M2002 310 c0 -14 2 -19 5 -12 2 6 2 18 0 25 -3 6 -5 1 -5 -13z"/>
<path d="M253 293 c9 -2 23 -2 30 0 6 3 -1 5 -18 5 -16 0 -22 -2 -12 -5z"/>
<path d="M2301 284 c0 -11 3 -14 6 -6 3 7 2 16 -1 19 -3 4 -6 -2 -5 -13z"/>
<path d="M2394 289 c-3 -6 1 -18 11 -27 16 -16 17 -16 7 4 -6 12 -8 24 -5 28
3 3 4 6 0 6 -3 0 -9 -5 -13 -11z"/>
<path d="M2430 270 c6 -11 13 -20 16 -20 2 0 0 9 -6 20 -6 11 -13 20 -16 20
-2 0 0 -9 6 -20z"/>
<path d="M150 270 c0 -5 7 -7 15 -4 8 4 15 8 15 10 0 2 -7 4 -15 4 -8 0 -15
-4 -15 -10z"/>
<path d="M2577 269 c7 -7 15 -10 18 -7 3 3 -2 9 -12 12 -14 6 -15 5 -6 -5z"/>
<path d="M2689 263 c-13 -16 -12 -17 4 -4 16 13 21 21 13 21 -2 0 -10 -8 -17
-17z"/>
</g>
</svg>
