<svg width="304.00954589843747px" height="94.07064819335938px" xmlns="http://www.w3.org/2000/svg" viewBox="97.99522705078127 27.964675903320312 304.00954589843747 94.07064819335938" style="background: rgba(0, 0, 0, 0);" preserveAspectRatio="xMidYMid"><defs><linearGradient id="editing-shiny-gradient" x1="0.04322727117869957" x2="0.9567727288213004" y1="0.2966316784620999" y2="0.7033683215379001" gradientUnits="objectBoundingBox"><stop offset="0.0" stop-color="#ffb200"></stop><stop offset="0.5" stop-color="#e10057"></stop><stop offset="1.0" stop-color="#5A1A80"></stop></linearGradient><linearGradient id="editing-shiny-gradient2" x1="0" x2="0" y1="0" y2="1"><stop offset="0.2" stop-color="#fff" stop-opacity="0.8"></stop><stop offset="0.8" stop-color="#fff" stop-opacity="0"></stop></linearGradient><filter id="editing-shiny2" x="-100%" y="-100%" width="300%" height="300%"><feMorphology operator="erode" radius="2"></feMorphology></filter><filter id="editing-shiny" x="-100%" y="-100%" width="300%" height="300%"><feFlood flood-color="#fff" result="flood"></feFlood><feConvolveMatrix in="SourceGraphic" result="conv" order="8,8" divisor="1" kernelMatrix="0 0 0 0 0 0 0 0 0 0 0 1 1 0 0 0 0 0 0 1 1 0 0 0 0 0 1 0 0 1 0 0 0 0 1 0 0 1 0 0 0 1 0 0 0 0 1 0 0 1 1 0 0 1 1 0 0 0 0 1 1 0 0 0 "></feConvolveMatrix><feOffset dx="0" dy="4" in="conv" result="offset"></feOffset><feComposite operator="in" in="flood" in2="offset" result="comp"></feComposite><feGaussianBlur in="offset" stdDeviation="3" result="shadow"></feGaussianBlur><feColorMatrix in="shadow" type="matrix" values="0.7 0 0 0 0  0 0.7 0 0 0  0 0 0.7 0 0  0 0 0 0.3 0" result="dark-shadow"></feColorMatrix><feOffset dx="0" dy="4" in="dark-shadow" result="offset-shadow"></feOffset><feOffset dx="0" dy="2" in="conv" result="offset-2"></feOffset><feComposite operator="out" in="offset" in2="offset-2" result="edge-diff"></feComposite><feGaussianBlur in="edge-diff" stdDeviation="1" result="edge-blur"></feGaussianBlur><feColorMatrix in="edge-blur" result="edge-shadow" type="matrix" values="0 0 0 0 0  0 0 0 0 0  0 0 0 0 0  0 0 0 0.5 0"></feColorMatrix><feComposite operator="in" in="edge-shadow" in2="offset" result="edge-shadow-in"></feComposite><feOffset dx="0" dy="1" in="edge-shadow-in" result="edge-shadow-final"></feOffset><feMerge result="out"><feMergeNode in="offset-shadow"></feMergeNode><feMergeNode in="comp"></feMergeNode><feMergeNode in="edge-shadow-final"></feMergeNode><feMergeNode in="SourceGraphic"></feMergeNode></feMerge></filter></defs><g filter="url(#editing-shiny)"><g transform="translate(108.30499756336212, 98.68000030517578)"><path d="M26.05-29.57L26.05-29.57L26.05-29.57Q27.01-31.49 27.01-33.28L27.01-33.28L27.01-33.28Q27.01-35.07 26.82-36.06L26.82-36.06L26.82-36.06Q26.62-37.06 26.18-37.82L26.18-37.82L26.18-37.82Q25.22-39.49 23.30-39.49L23.30-39.49L23.30-39.49Q20.93-39.49 19.01-37.76L19.01-37.76L19.01-37.76Q16.96-35.97 16.96-33.15L16.96-33.15L16.96-33.15Q16.96-31.36 18.21-29.98L18.21-29.98L18.21-29.98Q19.46-28.61 21.38-27.33L21.38-27.33L21.38-27.33Q23.30-26.05 25.47-24.77L25.47-24.77L25.47-24.77Q27.65-23.49 29.57-21.95L29.57-21.95L29.57-21.95Q33.98-18.43 33.98-13.70L33.98-13.70L33.98-13.70Q33.98-10.50 32.29-7.78L32.29-7.78L32.29-7.78Q30.59-5.06 27.78-3.07L27.78-3.07L27.78-3.07Q21.63 1.28 13.50 1.28L13.50 1.28L13.50 1.28Q6.91 1.28 3.52-0.86L3.52-0.86L3.52-0.86Q0.13-3.01 0.13-6.27L0.13-6.27L0.13-6.27Q0.13-12.10 4.67-13.57L4.67-13.57L4.67-13.57Q5.95-14.02 7.90-14.02L7.90-14.02L7.90-14.02Q9.86-14.02 12.10-13.18L12.10-13.18L12.10-13.18Q11.07-10.56 11.07-8.19L11.07-8.19L11.07-8.19Q11.07-3.07 14.72-3.07L14.72-3.07L14.72-3.07Q17.09-3.07 19.04-4.80L19.04-4.80L19.04-4.80Q20.99-6.53 20.99-8.48L20.99-8.48L20.99-8.48Q20.99-10.43 19.74-11.84L19.74-11.84L19.74-11.84Q18.50-13.25 16.64-14.37L16.64-14.37L16.64-14.37Q14.78-15.49 12.64-16.58L12.64-16.58L12.64-16.58Q10.50-17.66 8.64-19.20L8.64-19.20L8.64-19.20Q4.29-22.72 4.29-28.35L4.29-28.35L4.29-28.35Q4.29-32 6.08-34.85L6.08-34.85L6.08-34.85Q7.87-37.70 10.75-39.62L10.75-39.62L10.75-39.62Q16.51-43.52 23.58-43.52L23.58-43.52L23.58-43.52Q30.66-43.52 34.08-41.41L34.08-41.41L34.08-41.41Q37.50-39.30 37.50-35.71L37.50-35.71L37.50-35.71Q37.50-32.58 35.07-30.59L35.07-30.59L35.07-30.59Q32.96-28.93 30.40-28.93L30.40-28.93L30.40-28.93Q27.84-28.93 26.05-29.57ZM41.63-1.92L41.63-1.92L41.63-1.92Q40.13-3.58 39.46-6.21L39.46-6.21L39.46-6.21Q38.78-8.83 38.78-13.12L38.78-13.12L38.78-13.12Q38.78-17.41 40.26-21.31L40.26-21.31L40.26-21.31Q41.73-25.22 44.42-28.03L44.42-28.03L44.42-28.03Q49.92-33.92 59.01-33.92L59.01-33.92L59.01-33.92Q62.27-33.92 64.64-32.83L64.64-32.83L75.58-33.92L70.85-8.96L70.85-8.96Q70.66-8.19 70.66-6.78L70.66-6.78L70.66-6.78Q70.66-5.38 71.52-4.48L71.52-4.48L71.52-4.48Q72.38-3.58 73.66-3.46L73.66-3.46L73.66-3.46Q73.02-1.28 70.69 0L70.69 0L70.69 0Q68.35 1.28 65.73 1.28L65.73 1.28L65.73 1.28Q63.10 1.28 61.34 0.29L61.34 0.29L61.34 0.29Q59.58-0.70 59.07-2.37L59.07-2.37L59.07-2.37Q58.05-0.77 55.87 0.26L55.87 0.26L55.87 0.26Q53.70 1.28 50.78 1.28L50.78 1.28L50.78 1.28Q47.87 1.28 45.50 0.51L45.50 0.51L45.50 0.51Q43.14-0.26 41.63-1.92ZM55.14-27.90L55.14-27.90L55.14-27.90Q54.40-26.75 53.76-24.80L53.76-24.80L53.76-24.80Q53.12-22.85 52.06-17.63L52.06-17.63L52.06-17.63Q51.01-12.42 51.01-8.70L51.01-8.70L51.01-8.70Q51.01-4.99 51.58-3.90L51.58-3.90L51.58-3.90Q52.16-2.82 53.18-2.82L53.18-2.82L53.18-2.82Q55.23-2.82 56.74-4.77L56.74-4.77L56.74-4.77Q58.24-6.72 58.82-10.18L58.82-10.18L62.21-28.93L62.21-28.93Q60.86-30.08 59.30-30.08L59.30-30.08L59.30-30.08Q57.73-30.08 56.80-29.57L56.80-29.57L56.80-29.57Q55.87-29.06 55.14-27.90ZM95.55-30.34L95.55-30.34L95.55-30.34Q99.01-33.92 106.30-33.92L106.30-33.92L106.30-33.92Q110.34-33.92 112.54-31.78L112.54-31.78L112.54-31.78Q114.75-29.63 114.75-25.70L114.75-25.70L114.75-25.70Q114.75-21.76 112.54-18.98L112.54-18.98L112.54-18.98Q110.34-16.19 106.24-15.04L106.24-15.04L106.24-15.04Q106.56-13.76 107.01-12.42L107.01-12.42L107.90-9.86L107.90-9.86Q109.12-6.59 110.08-5.44L110.08-5.44L110.08-5.44Q111.04-4.29 112.32-3.90L112.32-3.90L112.32-3.90Q111.62-1.28 109.06 0.13L109.06 0.13L109.06 0.13Q107.01 1.28 104.19 1.28L104.19 1.28L104.19 1.28Q95.94 1.28 94.85-11.46L94.85-11.46L94.85-11.46Q94.66-13.25 94.66-15.04L94.66-15.04L94.66-15.04Q97.86-15.94 100.10-18.94L100.10-18.94L100.10-18.94Q102.34-21.95 102.34-25.47L102.34-25.47L102.34-25.47Q102.34-28.99 99.84-28.99L99.84-28.99L99.84-28.99Q98.05-28.99 96.64-27.01L96.64-27.01L96.64-27.01Q95.23-25.02 94.59-21.63L94.59-21.63L90.37 0L77.44 1.28L86.40-44.80L99.26-46.08L97.79-38.46L97.79-38.46Q96.83-33.09 95.55-30.34ZM136.83-22.46L136.83-22.46L136.83-22.46Q137.73-24.83 137.73-26.88L137.73-26.88L137.73-26.88Q137.73-30.66 134.66-30.66L134.66-30.66L134.66-30.66Q133.06-30.66 131.74-29.22L131.74-29.22L131.74-29.22Q130.43-27.78 130.43-25.98L130.43-25.98L130.43-25.98Q130.43-24.70 131.46-23.68L131.46-23.68L131.46-23.68Q132.93-22.27 136.70-19.97L136.70-19.97L136.70-19.97Q140.48-17.66 141.92-15.78L141.92-15.78L141.92-15.78Q143.36-13.89 143.36-11.30L143.36-11.30L143.36-11.30Q143.36-8.70 142.11-6.34L142.11-6.34L142.11-6.34Q140.86-3.97 138.62-2.30L138.62-2.30L138.62-2.30Q133.82 1.28 126.14 1.28L126.14 1.28L126.14 1.28Q121.98 1.28 118.78-0.90L118.78-0.90L118.78-0.90Q115.58-3.01 115.58-5.50L115.58-5.50L115.58-5.50Q115.58-8 117.41-9.47L117.41-9.47L117.41-9.47Q119.23-10.94 121.92-10.94L121.92-10.94L121.92-10.94Q124.61-10.94 126.27-9.92L126.27-9.92L126.27-9.92Q125.44-7.81 125.44-6.40L125.44-6.40L125.44-6.40Q125.44-2.18 129.02-2.18L129.02-2.18L129.02-2.18Q130.56-2.18 131.58-3.14L131.58-3.14L131.58-3.14Q132.61-4.10 132.61-5.76L132.61-5.76L132.61-5.76Q132.61-9.02 127.10-12.48L127.10-12.48L127.10-12.48Q122.62-15.42 121.60-16.58L121.60-16.58L121.60-16.58Q119.87-18.62 119.87-21.18L119.87-21.18L119.87-21.18Q119.87-23.74 121.09-26.18L121.09-26.18L121.09-26.18Q122.30-28.61 124.54-30.34L124.54-30.34L124.54-30.34Q129.22-33.92 137.34-33.92L137.34-33.92L137.34-33.92Q141.50-33.92 143.97-32.26L143.97-32.26L143.97-32.26Q146.43-30.59 146.43-27.78L146.43-27.78L146.43-27.78Q146.43-24.96 144.74-23.36L144.74-23.36L144.74-23.36Q143.04-21.76 139.97-21.76L139.97-21.76L139.97-21.76Q137.86-21.76 136.83-22.46ZM180.99-7.10L180.99-7.10L180.99-7.10Q180.99-4.29 183.87-3.46L183.87-3.46L183.87-3.46Q183.17-1.09 180.42 0.19L180.42 0.19L180.42 0.19Q178.11 1.28 175.58 1.28L175.58 1.28L175.58 1.28Q173.06 1.28 171.74 0.61L171.74 0.61L171.74 0.61Q170.43-0.06 169.73-1.15L169.73-1.15L169.73-1.15Q168.58-2.82 168.58-5.95L168.58-5.95L168.58-5.95Q168.58-7.81 169.60-12.93L169.60-12.93L170.50-17.79L170.50-17.79Q171.58-23.36 171.58-25.41L171.58-25.41L171.58-25.41Q171.58-28.99 169.60-28.99L169.60-28.99L169.60-28.99Q167.10-28.99 165.50-25.34L165.50-25.34L165.50-25.34Q164.86-23.94 164.42-21.82L164.42-21.82L160.06 0L147.20 1.28L156.22-44.80L169.09-46.08L168.58-43.52L168.58-43.52Q166.78-33.66 165.25-30.34L165.25-30.34L165.25-30.34Q168.83-33.92 175.42-33.92L175.42-33.92L175.42-33.92Q182.40-33.92 183.68-29.31L183.68-29.31L183.68-29.31Q184.13-27.84 184.13-26.56L184.13-26.56L184.13-26.56Q184.13-25.28 184.03-24.29L184.03-24.29L184.03-24.29Q183.94-23.30 183.62-21.50L183.62-21.50L182.78-16.90L181.31-9.66L181.31-9.66Q180.99-8.19 180.99-7.10ZM191.84-1.92L191.84-1.92L191.84-1.92Q190.34-3.58 189.66-6.21L189.66-6.21L189.66-6.21Q188.99-8.83 188.99-13.12L188.99-13.12L188.99-13.12Q188.99-17.41 190.46-21.31L190.46-21.31L190.46-21.31Q191.94-25.22 194.62-28.03L194.62-28.03L194.62-28.03Q200.13-33.92 209.22-33.92L209.22-33.92L209.22-33.92Q212.48-33.92 214.85-32.83L214.85-32.83L225.79-33.92L221.06-8.96L221.06-8.96Q220.86-8.19 220.86-6.78L220.86-6.78L220.86-6.78Q220.86-5.38 221.73-4.48L221.73-4.48L221.73-4.48Q222.59-3.58 223.87-3.46L223.87-3.46L223.87-3.46Q223.23-1.28 220.90 0L220.90 0L220.90 0Q218.56 1.28 215.94 1.28L215.94 1.28L215.94 1.28Q213.31 1.28 211.55 0.29L211.55 0.29L211.55 0.29Q209.79-0.70 209.28-2.37L209.28-2.37L209.28-2.37Q208.26-0.77 206.08 0.26L206.08 0.26L206.08 0.26Q203.90 1.28 200.99 1.28L200.99 1.28L200.99 1.28Q198.08 1.28 195.71 0.51L195.71 0.51L195.71 0.51Q193.34-0.26 191.84-1.92ZM205.34-27.90L205.34-27.90L205.34-27.90Q204.61-26.75 203.97-24.80L203.97-24.80L203.97-24.80Q203.33-22.85 202.27-17.63L202.27-17.63L202.27-17.63Q201.22-12.42 201.22-8.70L201.22-8.70L201.22-8.70Q201.22-4.99 201.79-3.90L201.79-3.90L201.79-3.90Q202.37-2.82 203.39-2.82L203.39-2.82L203.39-2.82Q205.44-2.82 206.94-4.77L206.94-4.77L206.94-4.77Q208.45-6.72 209.02-10.18L209.02-10.18L212.42-28.93L212.42-28.93Q211.07-30.08 209.50-30.08L209.50-30.08L209.50-30.08Q207.94-30.08 207.01-29.57L207.01-29.57L207.01-29.57Q206.08-29.06 205.34-27.90ZM275.33 1.28L275.33 1.28L275.33 1.28Q267.58 1.28 267.58-4.74L267.58-4.74L267.58-4.74Q267.58-7.36 268.70-12.45L268.70-12.45L268.70-12.45Q269.82-17.54 270.21-19.58L270.21-19.58L270.21-19.58Q271.10-24.26 271.10-25.73L271.10-25.73L271.10-25.73Q271.10-28.99 268.67-28.99L268.67-28.99L268.67-28.99Q267.07-28.99 265.54-26.78L265.54-26.78L265.54-26.78Q264-24.58 263.30-20.16L263.30-20.16L259.33 0L246.85 1.28L250.30-16.13L250.30-16.13Q250.88-19.01 251.39-22.27L251.39-22.27L251.39-22.27Q251.90-25.54 251.90-26.05L251.90-26.05L251.90-26.05Q251.90-28.99 249.73-28.99L249.73-28.99L249.73-28.99Q248.26-28.99 246.66-26.82L246.66-26.82L246.66-26.82Q245.06-24.64 244.16-20.16L244.16-20.16L240.26 0L227.65 1.28L234.37-32.64L244.80-33.92L243.71-27.46L243.71-27.46Q245.38-30.91 248.45-32.42L248.45-32.42L248.45-32.42Q251.52-33.92 256.32-33.92L256.32-33.92L256.32-33.92Q259.07-33.92 260.86-32.58L260.86-32.58L260.86-32.58Q262.66-31.23 263.23-29.06L263.23-29.06L263.23-29.06Q264.32-31.30 267.10-32.61L267.10-32.61L267.10-32.61Q269.89-33.92 273.31-33.92L273.31-33.92L273.31-33.92Q276.74-33.92 278.43-33.18L278.43-33.18L278.43-33.18Q280.13-32.45 281.15-31.23L281.15-31.23L281.15-31.23Q282.88-28.99 282.88-24.90L282.88-24.90L282.88-24.90Q282.88-20.86 281.15-12.48L281.15-12.48L281.15-12.48Q280.26-8.38 280.26-6.88L280.26-6.88L280.26-6.88Q280.26-5.38 281.12-4.48L281.12-4.48L281.12-4.48Q281.98-3.58 283.26-3.46L283.26-3.46L283.26-3.46Q282.62-1.28 280.42 0L280.42 0L280.42 0Q278.21 1.28 275.33 1.28Z" fill="url(#editing-shiny-gradient)"></path></g></g><g filter="url(#editing-shiny2)"><g transform="translate(108.30499756336212, 98.68000030517578)"><path d="M26.05-29.57L26.05-29.57L26.05-29.57Q27.01-31.49 27.01-33.28L27.01-33.28L27.01-33.28Q27.01-35.07 26.82-36.06L26.82-36.06L26.82-36.06Q26.62-37.06 26.18-37.82L26.18-37.82L26.18-37.82Q25.22-39.49 23.30-39.49L23.30-39.49L23.30-39.49Q20.93-39.49 19.01-37.76L19.01-37.76L19.01-37.76Q16.96-35.97 16.96-33.15L16.96-33.15L16.96-33.15Q16.96-31.36 18.21-29.98L18.21-29.98L18.21-29.98Q19.46-28.61 21.38-27.33L21.38-27.33L21.38-27.33Q23.30-26.05 25.47-24.77L25.47-24.77L25.47-24.77Q27.65-23.49 29.57-21.95L29.57-21.95L29.57-21.95Q33.98-18.43 33.98-13.70L33.98-13.70L33.98-13.70Q33.98-10.50 32.29-7.78L32.29-7.78L32.29-7.78Q30.59-5.06 27.78-3.07L27.78-3.07L27.78-3.07Q21.63 1.28 13.50 1.28L13.50 1.28L13.50 1.28Q6.91 1.28 3.52-0.86L3.52-0.86L3.52-0.86Q0.13-3.01 0.13-6.27L0.13-6.27L0.13-6.27Q0.13-12.10 4.67-13.57L4.67-13.57L4.67-13.57Q5.95-14.02 7.90-14.02L7.90-14.02L7.90-14.02Q9.86-14.02 12.10-13.18L12.10-13.18L12.10-13.18Q11.07-10.56 11.07-8.19L11.07-8.19L11.07-8.19Q11.07-3.07 14.72-3.07L14.72-3.07L14.72-3.07Q17.09-3.07 19.04-4.80L19.04-4.80L19.04-4.80Q20.99-6.53 20.99-8.48L20.99-8.48L20.99-8.48Q20.99-10.43 19.74-11.84L19.74-11.84L19.74-11.84Q18.50-13.25 16.64-14.37L16.64-14.37L16.64-14.37Q14.78-15.49 12.64-16.58L12.64-16.58L12.64-16.58Q10.50-17.66 8.64-19.20L8.64-19.20L8.64-19.20Q4.29-22.72 4.29-28.35L4.29-28.35L4.29-28.35Q4.29-32 6.08-34.85L6.08-34.85L6.08-34.85Q7.87-37.70 10.75-39.62L10.75-39.62L10.75-39.62Q16.51-43.52 23.58-43.52L23.58-43.52L23.58-43.52Q30.66-43.52 34.08-41.41L34.08-41.41L34.08-41.41Q37.50-39.30 37.50-35.71L37.50-35.71L37.50-35.71Q37.50-32.58 35.07-30.59L35.07-30.59L35.07-30.59Q32.96-28.93 30.40-28.93L30.40-28.93L30.40-28.93Q27.84-28.93 26.05-29.57ZM41.63-1.92L41.63-1.92L41.63-1.92Q40.13-3.58 39.46-6.21L39.46-6.21L39.46-6.21Q38.78-8.83 38.78-13.12L38.78-13.12L38.78-13.12Q38.78-17.41 40.26-21.31L40.26-21.31L40.26-21.31Q41.73-25.22 44.42-28.03L44.42-28.03L44.42-28.03Q49.92-33.92 59.01-33.92L59.01-33.92L59.01-33.92Q62.27-33.92 64.64-32.83L64.64-32.83L75.58-33.92L70.85-8.96L70.85-8.96Q70.66-8.19 70.66-6.78L70.66-6.78L70.66-6.78Q70.66-5.38 71.52-4.48L71.52-4.48L71.52-4.48Q72.38-3.58 73.66-3.46L73.66-3.46L73.66-3.46Q73.02-1.28 70.69 0L70.69 0L70.69 0Q68.35 1.28 65.73 1.28L65.73 1.28L65.73 1.28Q63.10 1.28 61.34 0.29L61.34 0.29L61.34 0.29Q59.58-0.70 59.07-2.37L59.07-2.37L59.07-2.37Q58.05-0.77 55.87 0.26L55.87 0.26L55.87 0.26Q53.70 1.28 50.78 1.28L50.78 1.28L50.78 1.28Q47.87 1.28 45.50 0.51L45.50 0.51L45.50 0.51Q43.14-0.26 41.63-1.92ZM55.14-27.90L55.14-27.90L55.14-27.90Q54.40-26.75 53.76-24.80L53.76-24.80L53.76-24.80Q53.12-22.85 52.06-17.63L52.06-17.63L52.06-17.63Q51.01-12.42 51.01-8.70L51.01-8.70L51.01-8.70Q51.01-4.99 51.58-3.90L51.58-3.90L51.58-3.90Q52.16-2.82 53.18-2.82L53.18-2.82L53.18-2.82Q55.23-2.82 56.74-4.77L56.74-4.77L56.74-4.77Q58.24-6.72 58.82-10.18L58.82-10.18L62.21-28.93L62.21-28.93Q60.86-30.08 59.30-30.08L59.30-30.08L59.30-30.08Q57.73-30.08 56.80-29.57L56.80-29.57L56.80-29.57Q55.87-29.06 55.14-27.90ZM95.55-30.34L95.55-30.34L95.55-30.34Q99.01-33.92 106.30-33.92L106.30-33.92L106.30-33.92Q110.34-33.92 112.54-31.78L112.54-31.78L112.54-31.78Q114.75-29.63 114.75-25.70L114.75-25.70L114.75-25.70Q114.75-21.76 112.54-18.98L112.54-18.98L112.54-18.98Q110.34-16.19 106.24-15.04L106.24-15.04L106.24-15.04Q106.56-13.76 107.01-12.42L107.01-12.42L107.90-9.86L107.90-9.86Q109.12-6.59 110.08-5.44L110.08-5.44L110.08-5.44Q111.04-4.29 112.32-3.90L112.32-3.90L112.32-3.90Q111.62-1.28 109.06 0.13L109.06 0.13L109.06 0.13Q107.01 1.28 104.19 1.28L104.19 1.28L104.19 1.28Q95.94 1.28 94.85-11.46L94.85-11.46L94.85-11.46Q94.66-13.25 94.66-15.04L94.66-15.04L94.66-15.04Q97.86-15.94 100.10-18.94L100.10-18.94L100.10-18.94Q102.34-21.95 102.34-25.47L102.34-25.47L102.34-25.47Q102.34-28.99 99.84-28.99L99.84-28.99L99.84-28.99Q98.05-28.99 96.64-27.01L96.64-27.01L96.64-27.01Q95.23-25.02 94.59-21.63L94.59-21.63L90.37 0L77.44 1.28L86.40-44.80L99.26-46.08L97.79-38.46L97.79-38.46Q96.83-33.09 95.55-30.34ZM136.83-22.46L136.83-22.46L136.83-22.46Q137.73-24.83 137.73-26.88L137.73-26.88L137.73-26.88Q137.73-30.66 134.66-30.66L134.66-30.66L134.66-30.66Q133.06-30.66 131.74-29.22L131.74-29.22L131.74-29.22Q130.43-27.78 130.43-25.98L130.43-25.98L130.43-25.98Q130.43-24.70 131.46-23.68L131.46-23.68L131.46-23.68Q132.93-22.27 136.70-19.97L136.70-19.97L136.70-19.97Q140.48-17.66 141.92-15.78L141.92-15.78L141.92-15.78Q143.36-13.89 143.36-11.30L143.36-11.30L143.36-11.30Q143.36-8.70 142.11-6.34L142.11-6.34L142.11-6.34Q140.86-3.97 138.62-2.30L138.62-2.30L138.62-2.30Q133.82 1.28 126.14 1.28L126.14 1.28L126.14 1.28Q121.98 1.28 118.78-0.90L118.78-0.90L118.78-0.90Q115.58-3.01 115.58-5.50L115.58-5.50L115.58-5.50Q115.58-8 117.41-9.47L117.41-9.47L117.41-9.47Q119.23-10.94 121.92-10.94L121.92-10.94L121.92-10.94Q124.61-10.94 126.27-9.92L126.27-9.92L126.27-9.92Q125.44-7.81 125.44-6.40L125.44-6.40L125.44-6.40Q125.44-2.18 129.02-2.18L129.02-2.18L129.02-2.18Q130.56-2.18 131.58-3.14L131.58-3.14L131.58-3.14Q132.61-4.10 132.61-5.76L132.61-5.76L132.61-5.76Q132.61-9.02 127.10-12.48L127.10-12.48L127.10-12.48Q122.62-15.42 121.60-16.58L121.60-16.58L121.60-16.58Q119.87-18.62 119.87-21.18L119.87-21.18L119.87-21.18Q119.87-23.74 121.09-26.18L121.09-26.18L121.09-26.18Q122.30-28.61 124.54-30.34L124.54-30.34L124.54-30.34Q129.22-33.92 137.34-33.92L137.34-33.92L137.34-33.92Q141.50-33.92 143.97-32.26L143.97-32.26L143.97-32.26Q146.43-30.59 146.43-27.78L146.43-27.78L146.43-27.78Q146.43-24.96 144.74-23.36L144.74-23.36L144.74-23.36Q143.04-21.76 139.97-21.76L139.97-21.76L139.97-21.76Q137.86-21.76 136.83-22.46ZM180.99-7.10L180.99-7.10L180.99-7.10Q180.99-4.29 183.87-3.46L183.87-3.46L183.87-3.46Q183.17-1.09 180.42 0.19L180.42 0.19L180.42 0.19Q178.11 1.28 175.58 1.28L175.58 1.28L175.58 1.28Q173.06 1.28 171.74 0.61L171.74 0.61L171.74 0.61Q170.43-0.06 169.73-1.15L169.73-1.15L169.73-1.15Q168.58-2.82 168.58-5.95L168.58-5.95L168.58-5.95Q168.58-7.81 169.60-12.93L169.60-12.93L170.50-17.79L170.50-17.79Q171.58-23.36 171.58-25.41L171.58-25.41L171.58-25.41Q171.58-28.99 169.60-28.99L169.60-28.99L169.60-28.99Q167.10-28.99 165.50-25.34L165.50-25.34L165.50-25.34Q164.86-23.94 164.42-21.82L164.42-21.82L160.06 0L147.20 1.28L156.22-44.80L169.09-46.08L168.58-43.52L168.58-43.52Q166.78-33.66 165.25-30.34L165.25-30.34L165.25-30.34Q168.83-33.92 175.42-33.92L175.42-33.92L175.42-33.92Q182.40-33.92 183.68-29.31L183.68-29.31L183.68-29.31Q184.13-27.84 184.13-26.56L184.13-26.56L184.13-26.56Q184.13-25.28 184.03-24.29L184.03-24.29L184.03-24.29Q183.94-23.30 183.62-21.50L183.62-21.50L182.78-16.90L181.31-9.66L181.31-9.66Q180.99-8.19 180.99-7.10ZM191.84-1.92L191.84-1.92L191.84-1.92Q190.34-3.58 189.66-6.21L189.66-6.21L189.66-6.21Q188.99-8.83 188.99-13.12L188.99-13.12L188.99-13.12Q188.99-17.41 190.46-21.31L190.46-21.31L190.46-21.31Q191.94-25.22 194.62-28.03L194.62-28.03L194.62-28.03Q200.13-33.92 209.22-33.92L209.22-33.92L209.22-33.92Q212.48-33.92 214.85-32.83L214.85-32.83L225.79-33.92L221.06-8.96L221.06-8.96Q220.86-8.19 220.86-6.78L220.86-6.78L220.86-6.78Q220.86-5.38 221.73-4.48L221.73-4.48L221.73-4.48Q222.59-3.58 223.87-3.46L223.87-3.46L223.87-3.46Q223.23-1.28 220.90 0L220.90 0L220.90 0Q218.56 1.28 215.94 1.28L215.94 1.28L215.94 1.28Q213.31 1.28 211.55 0.29L211.55 0.29L211.55 0.29Q209.79-0.70 209.28-2.37L209.28-2.37L209.28-2.37Q208.26-0.77 206.08 0.26L206.08 0.26L206.08 0.26Q203.90 1.28 200.99 1.28L200.99 1.28L200.99 1.28Q198.08 1.28 195.71 0.51L195.71 0.51L195.71 0.51Q193.34-0.26 191.84-1.92ZM205.34-27.90L205.34-27.90L205.34-27.90Q204.61-26.75 203.97-24.80L203.97-24.80L203.97-24.80Q203.33-22.85 202.27-17.63L202.27-17.63L202.27-17.63Q201.22-12.42 201.22-8.70L201.22-8.70L201.22-8.70Q201.22-4.99 201.79-3.90L201.79-3.90L201.79-3.90Q202.37-2.82 203.39-2.82L203.39-2.82L203.39-2.82Q205.44-2.82 206.94-4.77L206.94-4.77L206.94-4.77Q208.45-6.72 209.02-10.18L209.02-10.18L212.42-28.93L212.42-28.93Q211.07-30.08 209.50-30.08L209.50-30.08L209.50-30.08Q207.94-30.08 207.01-29.57L207.01-29.57L207.01-29.57Q206.08-29.06 205.34-27.90ZM275.33 1.28L275.33 1.28L275.33 1.28Q267.58 1.28 267.58-4.74L267.58-4.74L267.58-4.74Q267.58-7.36 268.70-12.45L268.70-12.45L268.70-12.45Q269.82-17.54 270.21-19.58L270.21-19.58L270.21-19.58Q271.10-24.26 271.10-25.73L271.10-25.73L271.10-25.73Q271.10-28.99 268.67-28.99L268.67-28.99L268.67-28.99Q267.07-28.99 265.54-26.78L265.54-26.78L265.54-26.78Q264-24.58 263.30-20.16L263.30-20.16L259.33 0L246.85 1.28L250.30-16.13L250.30-16.13Q250.88-19.01 251.39-22.27L251.39-22.27L251.39-22.27Q251.90-25.54 251.90-26.05L251.90-26.05L251.90-26.05Q251.90-28.99 249.73-28.99L249.73-28.99L249.73-28.99Q248.26-28.99 246.66-26.82L246.66-26.82L246.66-26.82Q245.06-24.64 244.16-20.16L244.16-20.16L240.26 0L227.65 1.28L234.37-32.64L244.80-33.92L243.71-27.46L243.71-27.46Q245.38-30.91 248.45-32.42L248.45-32.42L248.45-32.42Q251.52-33.92 256.32-33.92L256.32-33.92L256.32-33.92Q259.07-33.92 260.86-32.58L260.86-32.58L260.86-32.58Q262.66-31.23 263.23-29.06L263.23-29.06L263.23-29.06Q264.32-31.30 267.10-32.61L267.10-32.61L267.10-32.61Q269.89-33.92 273.31-33.92L273.31-33.92L273.31-33.92Q276.74-33.92 278.43-33.18L278.43-33.18L278.43-33.18Q280.13-32.45 281.15-31.23L281.15-31.23L281.15-31.23Q282.88-28.99 282.88-24.90L282.88-24.90L282.88-24.90Q282.88-20.86 281.15-12.48L281.15-12.48L281.15-12.48Q280.26-8.38 280.26-6.88L280.26-6.88L280.26-6.88Q280.26-5.38 281.12-4.48L281.12-4.48L281.12-4.48Q281.98-3.58 283.26-3.46L283.26-3.46L283.26-3.46Q282.62-1.28 280.42 0L280.42 0L280.42 0Q278.21 1.28 275.33 1.28Z" fill="url(#editing-shiny-gradient2)"></path></g></g><style>text {
  font-size: 64px;
  font-family: Arial Black;
  dominant-baseline: central;
  text-anchor: middle;
}</style></svg>